<svg width="100" height="100" viewBox="0 0 100 100" fill="none" xmlns="http://www.w3.org/2000/svg">
<g clip-path="url(#clip0_2655_58)">
<path d="M73.83 3.06C72.13 4.78 69.73 7.45001 68.49 8.97001C64.12 14.45 60.06 21.1 57.29 27.3C55.79 30.64 53.88 35.88 53.29 38.22L52.92 39.66L54.07 41.96C55.79 45.37 57.62 49.74 58.75 53.1C59.69 55.99 60.37 58.72 60.37 59.75C60.37 60.37 60.55 60.9 60.78 60.9C60.88 60.9 61.21 60.1 61.5 59.11C62.18 56.87 63.24 54.55 63.82 54.04L64.27 53.65V51.58C64.27 50.43 64.37 48.03 64.48 46.22C65.26 33.93 67.66 23.01 71.99 11.87C72.5 10.56 73.96 7.42001 75.21 4.87001C76.48 2.33001 77.55 0.189983 77.57 0.0899832C77.61 0.00998322 77.49 -0.050007 77.3 -0.050007C77.11 -0.050007 75.56 1.36 73.83 3.06Z" fill="#6454ED"/>
<path d="M24.05 1.47999C24.05 1.51999 24.58 2.79 25.26 4.29C29.02 12.83 32.05 22.68 33.47 31.05C34 34.17 34.46 38.27 34.62 41.7L34.74 44.37L34.53 47.45C34.41 49.13 34.24 50.84 34.18 51.21L34.06 51.89L33.16 50.1C31.87 47.56 29.94 44.74 27.64 42.06C23 36.66 16.11 31.45 8.64 27.65C7.08 26.87 5.77 26.21 5.71 26.21C5.4 26.21 5.67 26.74 6.59 27.91C8.66 30.56 10.84 34.31 12.52 38.11C15.19 44.16 16.73 50.3 17.3 57.19L17.55 60.17L17.41 64.09L17.29 67.99L18.66 68.91C22.5 71.43 28.53 76.11 33.19 80.16C36.56 83.09 42.81 89.39 45.42 92.49C47.41 94.83 50.45 98.79 50.9 99.61L51.11 99.94L51.4 99.84C51.81 99.68 53.08 96.27 53.8 93.44C54.83 89.46 55.36 85.68 55.59 80.59L55.71 77.61L55.48 73.92C55.34 71.89 55.05 68.89 54.82 67.25C53.61 58.53 50.78 48.62 46.84 39.34C44.97 34.95 41.03 27.07 38.43 22.53C37.18 20.33 35.17 17.01 33.98 15.14C30.2 9.19 24.68 1.37003 24.27 1.37003C24.15 1.38003 24.05 1.41999 24.05 1.47999Z" fill="#6454ED"/>
<path d="M91.13 28.03C87.79 30.27 85.84 31.85 82.65 34.99C79.67 37.92 77.13 41 74.85 44.43C71.79 49.01 69.43 53.97 67.67 59.41C66.07 64.38 65.08 69.65 64.67 75.25C64.42 78.78 64.4 83.66 64.63 84.03L64.79 84.28L73.61 76.48L82.41 68.7L82.53 64.02L82.65 59.34L83 56.67C83.7 51.38 84.93 46.22 86.71 41.28C87.94 37.81 90.88 31.88 92.85 28.8C93.71 27.45 94.41 26.32 94.41 26.28C94.44 25.96 93.49 26.45 91.13 28.03Z" fill="#6454ED"/>
</g>
<defs>
<clipPath id="clip0_2655_58">
<rect width="100" height="100" fill="white"/>
</clipPath>
</defs>
</svg>
