<svg width="100" height="100" viewBox="0 0 100 100" fill="none" xmlns="http://www.w3.org/2000/svg">
<g clip-path="url(#clip0_2655_52)">
<path d="M36.56 11.42C35.9 12.89 35.31 14.29 35.31 14.58C35.31 15.46 49.28 32.01 50.02 32.01C50.76 32.01 64.73 15.47 64.73 14.58C64.73 14.29 64.07 12.89 63.19 11.49L61.65 8.84002H49.72H37.81L36.56 11.42Z" fill="#6454ED"/>
<path d="M0.0199966 26.79C0.0199966 27.45 9.28 33.7 13.26 35.69L17.3 37.75L23.04 38.19L28.78 38.63L24.74 44.07C22.46 47.08 20.62 49.73 20.62 49.95C20.62 50.54 35.25 56.27 35.62 55.83C35.69 55.68 37.09 50.98 38.63 45.39L41.5 35.24L37.16 30.9L32.82 26.49H16.42C7.37 26.49 0.0199966 26.64 0.0199966 26.79Z" fill="#6454ED"/>
<path d="M62.89 30.9L58.55 35.24L61.42 45.39C62.96 50.98 64.36 55.68 64.43 55.83C64.8 56.27 79.43 50.54 79.43 49.95C79.43 49.73 77.59 47.08 75.31 44.07L71.27 38.63L77.01 38.19L82.75 37.75L86.79 35.69C90.76 33.7 100.03 27.45 100.03 26.79C100.03 26.64 92.68 26.5 83.63 26.5H67.23L62.89 30.9Z" fill="#6454ED"/>
<path d="M42.37 59.87C40.02 71.78 38.18 81.86 38.33 82.3C38.84 83.62 49.58 91.27 50.54 90.9C50.98 90.68 53.78 88.77 56.64 86.64C59.43 84.51 61.79 82.3 61.79 81.64C61.79 80.32 53.55 38.77 53.19 38.33C53.12 38.18 52.31 38.62 51.5 39.36L50.03 40.68L48.71 39.5C47.97 38.76 47.17 38.25 47.02 38.25C46.86 38.26 44.72 47.96 42.37 59.87Z" fill="#6454ED"/>
</g>
<defs>
<clipPath id="clip0_2655_52">
<rect width="100" height="100" fill="white"/>
</clipPath>
</defs>
</svg>
