<?xml version="1.0" encoding="utf-8"?>
<!-- Generator: Adobe Illustrator 24.0.2, SVG Export Plug-In . SVG Version: 6.00 Build 0)  -->
<svg version="1.1" id="Layer_1" xmlns="http://www.w3.org/2000/svg" xmlns:xlink="http://www.w3.org/1999/xlink" x="0px" y="0px"
	 viewBox="0 0 100 100" style="enable-background:new 0 0 100 100;" xml:space="preserve">
<style type="text/css">
	.st0{fill:#0ACAD5;}
	.st1{fill:#BFBFBF;}
</style>
<g>
	<g transform="translate(0.000000,136.000000) scale(0.100000,-0.100000)">
		<path class="st0" d="M920.6,1169.6l-74-74V804.2V513.8H555.2H264.8l-76.9-76.9l-77-76.9h445.2h444.2v442.3
			c0,243.3-1,442.3-2.9,442.3C996.5,1244.6,961.9,1211,920.6,1169.6z"/>
		<path class="st1" d="M385,840.8V706.2h134.6h134.6v134.6v134.6H519.6H385V840.8z"/>
	</g>
	<g transform="translate(0.000000,136.000000) scale(0.100000,-0.100000)">
		<path class="st1" d="M0.4,896.5V432.1l96.2,96.2l96.2,96.2v271.2v272.1h272.1h271.2l96.2,96.2l96.2,96.2H463.8H0.4V896.5z"/>
	</g>
</g>
</svg>
