<?xml version="1.0" encoding="utf-8"?>
<!-- Generator: Adobe Illustrator 24.0.2, SVG Export Plug-In . SVG Version: 6.00 Build 0)  -->
<svg version="1.1" id="Layer_1" xmlns="http://www.w3.org/2000/svg" xmlns:xlink="http://www.w3.org/1999/xlink" x="0px" y="0px"
	 viewBox="0 0 100 100" style="enable-background:new 0 0 100 100;" xml:space="preserve">
<style type="text/css">
	.st0{fill:#0ACAD5;}
</style>
<g transform="translate(0.000000,491.000000) scale(0.100000,-0.100000)">
	<path class="st0" d="M738.3,4879.4c-17-17.2-41-43.9-53.4-59.1c-43.7-54.8-84.3-121.3-112-183.3c-15-33.4-34.1-85.8-40-109.2
		l-3.7-14.4l11.5-23c17.2-34.1,35.5-77.8,46.8-111.4c9.4-28.9,16.2-56.2,16.2-66.5c0-6.2,1.8-11.5,4.1-11.5c1,0,4.3,8,7.2,17.9
		c6.8,22.4,17.4,45.6,23.2,50.7l4.5,3.9v20.7c0,11.5,1,35.5,2.1,53.6c7.8,122.9,31.8,232.1,75.1,343.5c5.1,13.1,19.7,44.5,32.2,70
		c12.7,25.4,23.4,46.8,23.6,47.8c0.4,0.8-0.8,1.4-2.7,1.4S755.6,4896.4,738.3,4879.4z"/>
	<path class="st0" d="M240.5,4895.2c0-0.4,5.3-13.1,12.1-28.1c37.6-85.4,67.9-183.9,82.1-267.6c5.3-31.2,9.9-72.2,11.5-106.5
		l1.2-26.7l-2.1-30.8c-1.2-16.8-2.9-33.9-3.5-37.6l-1.2-6.8l-9,17.9c-12.9,25.4-32.2,53.6-55.2,80.4c-46.4,54-115.3,106.1-190,144.1
		c-15.6,7.8-28.7,14.4-29.3,14.4c-3.1,0-0.4-5.3,8.8-17c20.7-26.5,42.5-64,59.3-102c26.7-60.5,42.1-121.9,47.8-190.8l2.5-29.8
		l-1.4-39.2l-1.2-39l13.7-9.2c38.4-25.2,98.7-72,145.3-112.5c33.7-29.3,96.2-92.3,122.3-123.3c19.9-23.4,50.3-63,54.8-71.2l2.1-3.3
		l2.9,1c4.1,1.6,16.8,35.7,24,64c10.3,39.8,15.6,77.6,17.9,128.5l1.2,29.8l-2.3,36.9c-1.4,20.3-4.3,50.3-6.6,66.7
		c-12.1,87.2-40.4,186.3-79.8,279.1c-18.7,43.9-58.1,122.7-84.1,168.1c-12.5,22-32.6,55.2-44.5,73.9c-37.8,59.5-93,137.7-97.1,137.7
		C241.5,4896.2,240.5,4895.8,240.5,4895.2z"/>
	<path class="st0" d="M911.3,4629.7c-33.4-22.4-52.9-38.2-84.8-69.6c-29.8-29.3-55.2-60.1-78-94.4c-30.6-45.8-54.2-95.4-71.8-149.8
		c-16-49.7-25.9-102.4-30-158.4c-2.5-35.3-2.7-84.1-0.4-87.8l1.6-2.5l88.2,78l88,77.8l1.2,46.8l1.2,46.8l3.5,26.7
		c7,52.9,19.3,104.5,37.1,153.9c12.3,34.7,41.7,94,61.4,124.8c8.6,13.5,15.6,24.8,15.6,25.2C944.4,4650.4,934.9,4645.5,911.3,4629.7
		z"/>
</g>
</svg>
