<?xml version="1.0" encoding="utf-8"?>
<!-- Generator: Adobe Illustrator 24.0.2, SVG Export Plug-In . SVG Version: 6.00 Build 0)  -->
<svg version="1.1" id="Layer_1" xmlns="http://www.w3.org/2000/svg" xmlns:xlink="http://www.w3.org/1999/xlink" x="0px" y="0px"
	 viewBox="0 0 100 100" style="enable-background:new 0 0 100 100;" xml:space="preserve">
<style type="text/css">
	.st0{fill:#0AC9D4;}
	.st1{fill:#BFBFBF;}
</style>
<g>
	<g transform="translate(0.000000,136.000000) scale(0.100000,-0.100000)">
		<path class="st0" d="M401,958.1L0,557.1v-99V360h99h98.1L599,761.9l401,401v99v98.1h-99h-98.1L401,958.1z"/>
	</g>
	<g transform="translate(0.000000,136.000000) scale(0.100000,-0.100000)">
		<path class="st1" d="M0,1031.2V701.3l76.9,76.9l76.9,76.9v175v176h176h175l76.9,76.9l76.9,76.9H328.8H0V1031.2z"/>
		<path class="st1" d="M920.2,938.8l-74-74v-176v-175h-176h-175l-76.9-76.9L341.3,360h329.8H1000v326.9c0,179.8-1,326.9-2.9,326.9
			C996.2,1013.8,961.5,980.2,920.2,938.8z"/>
	</g>
</g>
</svg>
