<?xml version="1.0" encoding="utf-8"?>
<!-- Generator: Adobe Illustrator 24.0.2, SVG Export Plug-In . SVG Version: 6.00 Build 0)  -->
<svg version="1.1" id="Layer_1" xmlns="http://www.w3.org/2000/svg" xmlns:xlink="http://www.w3.org/1999/xlink" x="0px" y="0px"
	 viewBox="0 0 100 100" style="enable-background:new 0 0 100 100;" xml:space="preserve">
<style type="text/css">
	.st0{fill:#0ACAD5;}
</style>
<g transform="translate(0.000000,136.000000) scale(0.100000,-0.100000)">
	<path class="st0" d="M365.6,1245.8c-6.6-14.7-12.5-28.7-12.5-31.6c0-8.8,139.7-174.3,147.1-174.3c7.4,0,147.1,165.4,147.1,174.3
		c0,2.9-6.6,16.9-15.4,30.9l-15.4,26.5H497.2H378.1L365.6,1245.8z"/>
	<path class="st0" d="M0.2,1092.1c0-6.6,92.6-69.1,132.4-89l40.4-20.6l57.4-4.4l57.4-4.4l-40.4-54.4c-22.8-30.1-41.2-56.6-41.2-58.8
		c0-5.9,146.3-63.2,150-58.8c0.7,1.5,14.7,48.5,30.1,104.4l28.7,101.5l-43.4,43.4l-43.4,44.1h-164
		C73.7,1095.1,0.2,1093.6,0.2,1092.1z"/>
	<path class="st0" d="M628.9,1051l-43.4-43.4l28.7-101.5c15.4-55.9,29.4-102.9,30.1-104.4c3.7-4.4,150,52.9,150,58.8
		c0,2.2-18.4,28.7-41.2,58.8l-40.4,54.4l57.4,4.4l57.4,4.4l40.4,20.6c39.7,19.9,132.4,82.4,132.4,89c0,1.5-73.5,2.9-164,2.9h-164
		L628.9,1051z"/>
	<path class="st0" d="M423.7,761.3c-23.5-119.1-41.9-219.9-40.4-224.3c5.1-13.2,112.5-89.7,122.1-86c4.4,2.2,32.4,21.3,61,42.6
		c27.9,21.3,51.5,43.4,51.5,50c0,13.2-82.4,428.7-86,433.1c-0.7,1.5-8.8-2.9-16.9-10.3l-14.7-13.2l-13.2,11.8
		c-7.4,7.4-15.4,12.5-16.9,12.5C468.6,977.4,447.2,880.4,423.7,761.3z"/>
</g>
</svg>
