<svg width="146" height="26" viewBox="0 0 146 26" fill="none" xmlns="http://www.w3.org/2000/svg">
<path d="M19.26 8.496C19.26 9.96 18.924 11.304 18.252 12.528C17.58 13.728 16.548 14.7 15.156 15.444C13.764 16.188 12.036 16.56 9.97201 16.56H6.15601V25.632H5.46873e-06V0.359999H9.97201C11.988 0.359999 13.692 0.707999 15.084 1.404C16.476 2.1 17.52 3.06 18.216 4.284C18.912 5.508 19.26 6.912 19.26 8.496ZM9.50401 11.664C10.68 11.664 11.556 11.388 12.132 10.836C12.708 10.284 12.996 9.504 12.996 8.496C12.996 7.488 12.708 6.708 12.132 6.156C11.556 5.604 10.68 5.328 9.50401 5.328H6.15601V11.664H9.50401ZM34.4168 25.884C32.0408 25.884 29.8568 25.332 27.8648 24.228C25.8968 23.124 24.3248 21.588 23.1488 19.62C21.9968 17.628 21.4208 15.396 21.4208 12.924C21.4208 10.452 21.9968 8.232 23.1488 6.264C24.3248 4.296 25.8968 2.76 27.8648 1.656C29.8568 0.552 32.0408 -4.76837e-07 34.4168 -4.76837e-07C36.7929 -4.76837e-07 38.9649 0.552 40.9329 1.656C42.9249 2.76 44.4849 4.296 45.6129 6.264C46.7649 8.232 47.3408 10.452 47.3408 12.924C47.3408 15.396 46.7649 17.628 45.6129 19.62C44.4608 21.588 42.9008 23.124 40.9329 24.228C38.9649 25.332 36.7929 25.884 34.4168 25.884ZM34.4168 20.268C36.4328 20.268 38.0408 19.596 39.2408 18.252C40.4649 16.908 41.0769 15.132 41.0769 12.924C41.0769 10.692 40.4649 8.916 39.2408 7.596C38.0408 6.252 36.4328 5.58 34.4168 5.58C32.3768 5.58 30.7448 6.24 29.5208 7.56C28.3208 8.88 27.7208 10.668 27.7208 12.924C27.7208 15.156 28.3208 16.944 29.5208 18.288C30.7448 19.608 32.3768 20.268 34.4168 20.268ZM79.3856 0.359999V25.632H73.2296V10.476L67.5776 25.632H62.6096L56.9216 10.44V25.632H50.7656V0.359999H58.0376L65.1296 17.856L72.1496 0.359999H79.3856Z" fill="#6454ED"/>
<path d="M86.6925 25.92C85.6125 25.92 84.7245 25.608 84.0285 24.984C83.3565 24.336 83.0205 23.544 83.0205 22.608C83.0205 21.648 83.3565 20.844 84.0285 20.196C84.7245 19.548 85.6125 19.224 86.6925 19.224C87.7485 19.224 88.6125 19.548 89.2845 20.196C89.9805 20.844 90.3285 21.648 90.3285 22.608C90.3285 23.544 89.9805 24.336 89.2845 24.984C88.6125 25.608 87.7485 25.92 86.6925 25.92ZM110.749 8.352C110.293 7.512 109.633 6.876 108.769 6.444C107.929 5.988 106.933 5.76 105.781 5.76C103.789 5.76 102.193 6.42 100.993 7.74C99.7927 9.036 99.1927 10.776 99.1927 12.96C99.1927 15.288 99.8167 17.112 101.065 18.432C102.337 19.728 104.077 20.376 106.285 20.376C107.797 20.376 109.069 19.992 110.101 19.224C111.157 18.456 111.925 17.352 112.405 15.912H104.593V11.376H117.985V17.1C117.529 18.636 116.749 20.064 115.645 21.384C114.565 22.704 113.185 23.772 111.505 24.588C109.825 25.404 107.929 25.812 105.817 25.812C103.321 25.812 101.089 25.272 99.1207 24.192C97.1767 23.088 95.6527 21.564 94.5487 19.62C93.4687 17.676 92.9287 15.456 92.9287 12.96C92.9287 10.464 93.4687 8.244 94.5487 6.3C95.6527 4.332 97.1767 2.808 99.1207 1.728C101.065 0.623999 103.285 0.0719986 105.781 0.0719986C108.805 0.0719986 111.349 0.803998 113.413 2.268C115.501 3.732 116.881 5.76 117.553 8.352H110.749ZM138.171 8.352C137.715 7.512 137.055 6.876 136.191 6.444C135.351 5.988 134.355 5.76 133.203 5.76C131.211 5.76 129.615 6.42 128.415 7.74C127.215 9.036 126.615 10.776 126.615 12.96C126.615 15.288 127.239 17.112 128.487 18.432C129.759 19.728 131.499 20.376 133.707 20.376C135.219 20.376 136.491 19.992 137.523 19.224C138.579 18.456 139.347 17.352 139.827 15.912H132.015V11.376H145.407V17.1C144.951 18.636 144.171 20.064 143.067 21.384C141.987 22.704 140.607 23.772 138.927 24.588C137.247 25.404 135.351 25.812 133.239 25.812C130.743 25.812 128.511 25.272 126.543 24.192C124.599 23.088 123.075 21.564 121.971 19.62C120.891 17.676 120.351 15.456 120.351 12.96C120.351 10.464 120.891 8.244 121.971 6.3C123.075 4.332 124.599 2.808 126.543 1.728C128.487 0.623999 130.707 0.0719986 133.203 0.0719986C136.227 0.0719986 138.771 0.803998 140.835 2.268C142.923 3.732 144.303 5.76 144.975 8.352H138.171Z" fill="#1C192B"/>
</svg>
