<?xml version="1.0" encoding="utf-8"?>
<!-- Generator: Adobe Illustrator 24.0.2, SVG Export Plug-In . SVG Version: 6.00 Build 0)  -->
<svg version="1.1" id="Layer_1" xmlns="http://www.w3.org/2000/svg" xmlns:xlink="http://www.w3.org/1999/xlink" x="0px" y="0px"
	 viewBox="0 0 144 28" style="enable-background:new 0 0 144 28;" xml:space="preserve">
<style type="text/css">
	.st0{fill:#0ACAD5;}
	.st1{fill:#121212;}
</style>
<g>
	<path class="st0" d="M20,13.5c-0.7,1.2-1.7,2.2-3.1,2.9c-1.4,0.7-3.1,1.1-5.2,1.1H7.9v9.1H1.7V1.4h10c2,0,3.7,0.3,5.1,1
		c1.4,0.7,2.4,1.7,3.1,2.9c0.7,1.2,1,2.6,1,4.2C21,11,20.7,12.3,20,13.5z M13.9,11.9c0.6-0.6,0.9-1.3,0.9-2.3c0-1-0.3-1.8-0.9-2.3
		c-0.6-0.6-1.5-0.8-2.6-0.8H7.9v6.3h3.3C12.4,12.7,13.3,12.4,13.9,11.9z"/>
	<path class="st0" d="M29.6,25.3c-2-1.1-3.6-2.6-4.7-4.6c-1.2-2-1.7-4.2-1.7-6.7c0-2.5,0.6-4.7,1.7-6.7c1.2-2,2.7-3.5,4.7-4.6
		c2-1.1,4.2-1.7,6.5-1.7s4.6,0.6,6.5,1.7c2,1.1,3.5,2.6,4.7,4.6c1.1,2,1.7,4.2,1.7,6.7c0,2.5-0.6,4.7-1.7,6.7
		c-1.2,2-2.7,3.5-4.7,4.6c-2,1.1-4.1,1.7-6.5,1.7S31.6,26.4,29.6,25.3z M41,19.3c1.2-1.3,1.8-3.1,1.8-5.3c0-2.2-0.6-4-1.8-5.3
		s-2.8-2-4.8-2c-2,0-3.7,0.7-4.9,2c-1.2,1.3-1.8,3.1-1.8,5.4c0,2.2,0.6,4,1.8,5.3c1.2,1.3,2.8,2,4.9,2C38.2,21.3,39.8,20.6,41,19.3z
		"/>
	<path class="st0" d="M69.3,9.4c-0.5-0.8-1.1-1.5-2-1.9c-0.9-0.4-1.9-0.7-3-0.7c-2,0-3.6,0.7-4.8,2c-1.2,1.3-1.8,3.1-1.8,5.2
		c0,2.3,0.6,4.1,1.9,5.5c1.3,1.3,3,2,5.2,2c1.5,0,2.8-0.4,3.8-1.2c1-0.8,1.8-1.9,2.3-3.3h-7.8v-4.5h13.4v5.7c-0.5,1.5-1.2,3-2.3,4.3
		c-1.1,1.3-2.5,2.4-4.2,3.2c-1.7,0.8-3.6,1.2-5.7,1.2c-2.5,0-4.7-0.5-6.7-1.6c-2-1.1-3.5-2.6-4.6-4.6c-1.1-1.9-1.6-4.2-1.6-6.7
		s0.5-4.7,1.6-6.7c1.1-2,2.6-3.5,4.6-4.6c1.9-1.1,4.2-1.6,6.7-1.6c3,0,5.6,0.7,7.6,2.2s3.5,3.5,4.1,6.1H69.3z"/>
	<path class="st1" d="M80.2,26c-0.7-0.6-1-1.4-1-2.4c0-1,0.3-1.8,1-2.4s1.6-1,2.6-1c1.1,0,1.9,0.3,2.6,1s1,1.5,1,2.4
		c0,0.9-0.3,1.7-1,2.4s-1.6,1-2.6,1C81.7,27,80.8,26.6,80.2,26z"/>
	<path class="st1" d="M106.9,9.4c-0.5-0.8-1.1-1.5-2-1.9c-0.9-0.4-1.9-0.7-3-0.7c-2,0-3.6,0.7-4.8,2c-1.2,1.3-1.8,3.1-1.8,5.2
		c0,2.3,0.6,4.1,1.9,5.5c1.3,1.3,3,2,5.2,2c1.5,0,2.8-0.4,3.8-1.2c1-0.8,1.8-1.9,2.3-3.3h-7.8v-4.5h13.4v5.7c-0.5,1.5-1.2,3-2.3,4.3
		c-1.1,1.3-2.5,2.4-4.2,3.2c-1.7,0.8-3.6,1.2-5.7,1.2c-2.5,0-4.7-0.5-6.7-1.6c-2-1.1-3.5-2.6-4.6-4.6C89.6,18.7,89,16.5,89,14
		s0.5-4.7,1.6-6.7c1.1-2,2.6-3.5,4.6-4.6c1.9-1.1,4.2-1.6,6.7-1.6c3,0,5.6,0.7,7.7,2.2c2.1,1.5,3.4,3.5,4.1,6.1H106.9z"/>
	<path class="st1" d="M134.3,9.4c-0.5-0.8-1.1-1.5-2-1.9c-0.9-0.4-1.9-0.7-3-0.7c-2,0-3.6,0.7-4.8,2c-1.2,1.3-1.8,3.1-1.8,5.2
		c0,2.3,0.6,4.1,1.9,5.5c1.3,1.3,3,2,5.2,2c1.5,0,2.8-0.4,3.8-1.2c1-0.8,1.8-1.9,2.3-3.3h-7.8v-4.5h13.4v5.7c-0.5,1.5-1.2,3-2.3,4.3
		c-1.1,1.3-2.5,2.4-4.2,3.2c-1.7,0.8-3.6,1.2-5.7,1.2c-2.5,0-4.7-0.5-6.7-1.6c-2-1.1-3.5-2.6-4.6-4.6c-1.1-1.9-1.6-4.2-1.6-6.7
		s0.5-4.7,1.6-6.7c1.1-2,2.6-3.5,4.6-4.6c1.9-1.1,4.2-1.6,6.7-1.6c3,0,5.6,0.7,7.7,2.2c2.1,1.5,3.4,3.5,4.1,6.1H134.3z"/>
</g>
</svg>
